<?xml version="1.0" ?><!DOCTYPE svg  PUBLIC '-//W3C//DTD SVG 1.1//EN'  'http://www.w3.org/Graphics/SVG/1.1/DTD/svg11.dtd'><svg xmlns="http://www.w3.org/2000/svg" xmlns:xlink="http://www.w3.org/1999/xlink" xml:space="preserve" width="512px" height="512px" style="shape-rendering:geometricPrecision; text-rendering:geometricPrecision; image-rendering:optimizeQuality; fill-rule:evenodd; clip-rule:evenodd" viewBox="0 0 512 512"><defs><style type="text/css">
   <![CDATA[
    .fil0 {fill:#4F5660}
    .fil3 {fill:#616770}
    .fil6 {fill:#DA8C46}
    .fil2 {fill:#E7EAEF}
    .fil1 {fill:#F29C4E}
    .fil5 {fill:#F96464}
    .fil4 {fill:#FCAA52}
   ]]>
  </style></defs><g id="Layer_x0020_1"><g id="_280427456"><path id="_280428728" class="fil0" d="M399.9 267.399c-46.9005,0 -84.9995,-38.1993 -84.9995,-85.0987 0,-3.30001 2.70001,-6.00002 6.00002,-6.00002l78.9995 0c3.30001,0 6.00002,2.70001 6.00002,6.00002l0 79.0987c0,3.4004 -2.59961,6.00002 -6.00002,6.00002z"/><path id="_280429088" class="fil1" d="M463.4 398.699l-63.4998 0c-3.30001,0 -6.00002,-2.70001 -6.00002,-6.00002l0 -210.298c0,-3.30001 2.70001,-6.00002 6.00002,-6.00002l63.4998 0c3.30001,0 6.00002,2.70001 6.00002,6.00002l0 210.298c0,3.30001 -2.59961,6.00002 -6.00002,6.00002z"/><path id="_280428944" class="fil2" d="M75.0014 135.9l-49.0998 0c-1.09961,0 -2.2004,-0.300001 -3.1004,-0.900003l-19.9005 -12c-1.80001,-1.09961 -2.89962,-3.00001 -2.89962,-5.10002 0,-2.10001 1.09961,-4.00041 2.89962,-5.10002l19.9005 -12c0.900003,-0.600002 1.99961,-0.900003 3.1004,-0.900003l49.0998 0c3.30001,0 6.00002,2.70001 6.00002,6.00002l0 24.1005c0,3.19962 -2.6008,5.89962 -6.00002,5.89962z"/><path id="_280429208" class="fil3" d="M158.801 155l-77.1002 0c-7.00042,0 -12.7004,-5.70002 -12.7004,-12.7004l0.00118111 -48.0994c0,-7.00042 5.70002,-12.7004 12.7004,-12.7004l77.0991 0c3.30001,0 6.00002,2.70001 6.00002,6.00002l0 61.5002c0,3.30001 -2.70001,6.00002 -6.00002,6.00002z"/><path id="_280428008" class="fil0" d="M228.401 173.9l-62.8998 0c-7.00042,0 -12.7004,-5.70002 -12.7004,-12.7004l0 -85.8995c0,-7.00042 5.70002,-12.7004 12.7004,-12.7004l62.8998 0c3.30001,0 6.00002,2.70001 6.00002,6.00002l0 99.3003c0,3.30001 -2.70001,6.00002 -6.00002,6.00002z"/><path id="_280428320" class="fil1" d="M489.3 465.299l-121.1 0c-5.70002,0 -10.3996,-4.80001 -10.3996,-10.8l-0.00118111 -28.5001c0,-3.30001 2.70001,-6.00002 6.00002,-6.00002l130.001 0c3.30001,0 6.00002,2.70001 6.00002,6.00002l0 28.5001c-0.100394,6.00002 -4.7008,10.8 -10.5,10.8z"/><path id="_280427792" class="fil0" d="M493.7 431.999l-130 0c-3.30001,0 -6.00002,-2.70001 -6.00002,-6.00002l0 -28.5001c0,-6.00002 4.69962,-10.8 10.3996,-10.8l121.2 0c5.70002,0 10.3996,4.80001 10.3996,10.8l0 28.5001c0,3.30001 -2.59961,6.00002 -6.00002,6.00002z"/><path id="_280427840" class="fil4" d="M473.6 188.401l-238.498 0c-7.00042,0 -12.7004,-5.70002 -12.7004,-12.7004l0 -116.3c0,-7.00042 5.70002,-12.7004 12.7004,-12.7004l238.498 0 0 0c21.1997,0 38.4001,17.2004 38.4001,38.4001l0 64.9006c0,21.1997 -17.2004,38.4001 -38.4001,38.4001z"/><path id="_280428152" class="fil0" d="M473.6 188.401l-10.0996 0c-3.30001,0 -6.00002,-2.70001 -6.00002,-6.00002l0 -129.701c0,-3.30001 2.70001,-6.00002 6.00002,-6.00002l10.0996 0c10.2,0 19.9005,4.00041 27.1005,11.2996 7.29924,7.30042 11.2996,16.9004 11.2996,27.1005l0 64.9006c0,21.1997 -17.2004,38.4001 -38.4001,38.4001z"/><path id="_280427312" class="fil5" d="M430.001 159.3l-65.7002 0c-8.70003,0 -15.7004,-7.09963 -15.7004,-15.7004l0 -52.8002c0,-8.70003 7.09963,-15.7004 15.7004,-15.7004l65.7002 0c8.70003,0 15.7004,7.09963 15.7004,15.7004l0 52.8002c-0.00118111,8.70003 -7.00042,15.7004 -15.7004,15.7004z"/><path id="_280427120" class="fil6" d="M327.3 89.2999l-60.4998 0c-3.30001,0 -6.00002,-2.70001 -6.00002,-6.00002 0,-3.30001 2.70001,-6.00002 6.00002,-6.00002l60.4998 0c3.30001,0 6.00002,2.70001 6.00002,6.00002 0,3.30001 -2.70001,6.00002 -6.00002,6.00002z"/><path id="_280427600" class="fil6" d="M327.799 120.2l-60.4998 0c-3.30001,0 -6.00002,-2.70001 -6.00002,-6.00002 0,-3.30001 2.70001,-6.00002 6.00002,-6.00002l60.4998 0c3.30001,0 6.00002,2.70001 6.00002,6.00002 0,3.30001 -2.59961,6.00002 -6.00002,6.00002z"/><path id="_280427552" class="fil6" d="M328.3 151.1l-60.4998 0c-3.30001,0 -6.00002,-2.70001 -6.00002,-6.00002 0,-3.30001 2.70001,-6.00002 6.00002,-6.00002l60.4998 0c3.30001,0 6.00002,2.70001 6.00002,6.00002 0,3.30001 -2.6008,6.00002 -6.00002,6.00002z"/></g></g></svg>